<?xml version="1.0" standalone="no"?>
<!DOCTYPE svg PUBLIC "-//W3C//DTD SVG 20010904//EN"
 "http://www.w3.org/TR/2001/REC-SVG-20010904/DTD/svg10.dtd">
<svg version="1.0" xmlns="http://www.w3.org/2000/svg"
 width="600.000000pt" height="600.000000pt" viewBox="0 0 600.000000 600.000000"
 preserveAspectRatio="xMidYMid meet">
<metadata>
Created by potrace 1.11, written by Peter Selinger 2001-2013
</metadata>
<g transform="translate(0.000000,600.000000) scale(0.100000,-0.100000)"
fill="#000000" stroke="none">
<path d="M1435 4680 c-38 -15 -64 -18 -108 -13 -42 4 -68 1 -95 -10 -20 -9
-85 -25 -143 -36 -71 -13 -140 -34 -211 -65 -58 -25 -134 -53 -169 -62 -77
-20 -126 -44 -157 -76 -20 -22 -21 -28 -11 -57 9 -27 8 -35 -6 -51 -20 -22
-13 -53 10 -44 18 7 18 4 6 -29 -9 -22 -7 -25 20 -31 21 -4 34 -16 46 -41 16
-33 16 -37 -1 -72 -34 -70 -125 -358 -132 -414 -4 -37 -1 -80 10 -130 15 -65
15 -81 4 -115 -21 -59 -100 -172 -167 -239 -53 -51 -61 -64 -61 -96 0 -21 3
-45 6 -54 8 -20 56 -45 87 -45 13 0 31 -8 41 -18 15 -18 15 -22 0 -58 -22 -53
-13 -102 37 -204 45 -90 49 -119 34 -227 -10 -67 -2 -94 37 -139 53 -60 80
-67 296 -72 158 -4 197 -8 213 -21 23 -19 38 -75 39 -146 0 -54 22 -109 68
-177 15 -24 36 -59 45 -79 58 -126 77 -173 77 -191 0 -12 -36 -78 -80 -147
-67 -107 -118 -201 -108 -201 2 0 432 -1 956 -3 l953 -2 -6 35 c-8 46 -107
292 -142 356 -15 27 -44 72 -65 101 -21 29 -38 55 -38 58 0 3 78 5 173 5 l172
0 0 90 0 90 -177 0 -178 0 0 190 0 190 140 0 140 0 0 90 0 89 -137 3 -138 3 0
178 0 178 173 2 174 2 0 90 0 90 -274 0 -273 0 -3 -642 -2 -643 -105 0 -105 0
0 275 0 275 -110 0 -110 0 0 -275 0 -275 -105 0 -105 0 0 645 0 646 103 -3
102 -3 0 -273 0 -272 101 0 102 0 6 38 c4 20 9 144 12 275 l6 237 82 0 82 0
18 50 c16 44 21 50 46 50 24 0 29 5 34 30 20 102 11 91 79 88 l62 -3 9 -57 8
-58 53 0 53 0 -9 40 c-5 22 -13 68 -18 102 -16 108 -71 452 -77 481 -6 28 -6
28 -77 25 -68 -3 -72 -4 -75 -28 -6 -46 -18 -41 -31 12 -22 88 -81 230 -121
288 -20 30 -59 73 -87 95 -28 22 -56 52 -61 66 -9 23 -6 30 19 52 42 36 37 49
-12 32 -59 -21 -64 -20 -78 25 -6 21 -27 55 -45 75 -29 30 -39 35 -77 34 l-44
-1 33 -10 c29 -10 45 -28 23 -28 -21 0 -97 32 -116 49 -11 10 -38 22 -60 26
-22 4 -65 22 -96 41 -93 56 -292 79 -384 44z m-185 -1100 l0 -330 -55 0 -55 0
0 330 0 330 55 0 55 0 0 -330z m430 280 l0 -50 -50 0 -50 0 0 -280 0 -280 -55
0 -55 0 0 279 0 280 -52 3 -53 3 -3 48 -3 47 160 0 161 0 0 -50z m450 -90 l0
-140 55 0 55 0 0 140 0 140 55 0 55 0 -2 -327 -3 -328 -52 -3 -53 -3 0 140 0
141 -55 0 -54 0 -3 -137 -3 -138 -52 -3 -53 -3 0 330 0 331 55 0 55 0 0 -140z
m554 -252 l7 -58 -52 0 -51 0 6 30 c3 17 13 83 22 148 8 64 18 124 21 132 5
14 32 -128 47 -252z"/>
<path d="M4280 4400 c-158 -17 -339 -83 -450 -165 -67 -50 -161 -150 -225
-239 l-56 -80 49 -23 c67 -32 82 -66 82 -189 0 -149 -40 -204 -149 -204 l-51
0 0 -126 0 -125 -52 3 -53 3 0 152 c0 84 -3 149 -6 145 -29 -30 -101 -250
-114 -343 l-6 -47 148 -4 c161 -5 204 -16 256 -66 39 -37 63 -86 76 -157 33
-179 -12 -379 -94 -417 -32 -14 -31 -20 5 -41 38 -23 75 -87 89 -155 6 -29 11
-128 11 -220 0 -92 4 -182 9 -200 l10 -33 -107 3 c-104 3 -106 4 -113 28 -4
14 -7 107 -8 208 -1 204 -9 240 -60 266 -17 9 -55 16 -86 16 l-55 0 0 -260 0
-260 -46 0 c-43 0 -46 -2 -40 -22 14 -49 36 -226 36 -288 0 -78 -19 -153 -54
-216 -15 -26 -24 -49 -22 -51 6 -7 129 33 174 56 21 11 62 38 90 61 29 22 52
39 52 36 0 -2 -18 -35 -40 -72 l-40 -69 602 -3 c332 -1 609 0 616 3 18 7 14
34 -13 90 -38 78 -34 107 39 247 35 68 78 160 96 206 22 56 45 95 73 122 38
38 42 40 102 40 36 0 104 -11 156 -25 130 -35 226 -42 268 -21 43 23 51 49 51
176 l0 109 30 23 c29 21 30 24 24 79 -6 56 -6 56 29 78 45 28 50 44 32 105
-21 69 -20 73 26 81 76 13 135 48 158 93 14 27 8 40 -66 138 -29 38 -75 110
-103 160 -53 96 -63 150 -35 188 29 38 12 284 -31 469 -15 62 -15 70 1 110 22
54 22 150 1 201 -74 178 -395 349 -766 409 -121 20 -341 28 -450 17z m613
-494 c50 -21 77 -57 86 -114 4 -29 6 -54 3 -57 -3 -3 -27 -5 -54 -5 -48 0 -48
0 -48 33 0 18 -5 38 -12 45 -20 20 -56 14 -74 -13 -28 -44 -5 -97 81 -183 87
-88 108 -127 108 -202 0 -89 -37 -142 -111 -158 -112 -26 -192 36 -192 148 l0
50 50 0 50 0 0 -45 c0 -34 5 -47 20 -55 46 -25 87 17 75 78 -5 26 -27 57 -79
111 -104 110 -111 122 -111 213 0 62 4 82 21 105 41 57 120 78 187 49z m-813
-46 l0 -50 -87 0 -88 0 2 -87 1 -88 69 -1 68 -1 3 -47 3 -46 -70 0 -71 0 0
-95 0 -95 85 0 85 0 0 -50 0 -50 -140 0 -140 0 0 330 0 330 140 0 140 0 0 -50z
m274 33 c3 -10 19 -72 37 -138 62 -234 58 -232 58 -27 l1 182 50 0 50 0 -2
-327 -3 -328 -54 0 -54 0 -13 45 c-6 25 -34 128 -61 230 l-48 185 -3 -232 -2
-233 -45 0 -45 0 0 330 0 330 64 0 c53 0 66 -3 70 -17z m46 -828 l0 -95 -175
0 -175 0 0 -177 0 -178 137 0 138 0 3 -92 3 -93 -141 0 -140 0 0 -190 0 -191
173 2 172 1 3 -91 3 -91 -281 0 -280 0 0 645 0 645 280 0 280 0 0 -95z"/>
<path d="M2950 3586 l0 -326 50 0 50 0 0 120 0 120 43 0 c62 1 120 30 140 73
26 53 24 221 -3 264 -33 55 -61 66 -176 71 l-104 5 0 -327z m178 218 c20 -14
22 -24 22 -99 0 -96 -11 -115 -66 -115 l-34 0 0 115 0 115 28 0 c15 0 38 -7
50 -16z"/>
<path d="M3487 3804 c-4 -4 -7 -52 -7 -106 l0 -99 43 3 42 3 0 100 0 100 -35
3 c-20 2 -39 0 -43 -4z"/>
<path d="M3330 2775 l0 -195 65 0 c57 0 68 3 97 29 33 29 33 30 36 136 5 130
-2 170 -33 201 -21 21 -34 24 -95 24 l-70 0 0 -195z"/>
</g>
</svg>
